<!DOCTYPE svg PUBLIC "-//W3C//DTD SVG 1.1//EN" "http://www.w3.org/Graphics/SVG/1.1/DTD/svg11.dtd">
<!-- Uploaded to: SVG Repo, www.svgrepo.com, Transformed by: SVG Repo Mixer Tools -->
<svg version="1.1" id="Layer_1" xmlns="http://www.w3.org/2000/svg" xmlns:xlink="http://www.w3.org/1999/xlink" viewBox="0 0 512 512" xml:space="preserve" width="800px" height="800px" fill="#ffffff" stroke="#ffffff">
<g id="SVGRepo_bgCarrier" stroke-width="0"/>
<g id="SVGRepo_tracerCarrier" stroke-linecap="round" stroke-linejoin="round" stroke="#CCCCCC" stroke-width="51.2"/>
<g id="SVGRepo_iconCarrier"> <polygon style="fill:#FF9D49;" points="393.29,213.665 142.441,464.524 87.044,424.954 345.817,150.364 "/> <polygon style="fill:#FFCC75;" points="353.73,158.277 87.044,424.954 47.473,369.557 298.333,118.708 "/> <polygon style="fill:#BD1515;" points="512,94.965 440.78,166.185 377.475,118.708 464.522,47.486 "/> <polygon style="fill:#F2484B;" points="464.516,47.482 385.382,126.615 345.817,71.224 417.038,0.002 "/> <g> <rect x="335.974" y="75.292" transform="matrix(-0.7071 0.7071 -0.7071 -0.7071 731.5841 -18.1559)" style="fill:#082947;" width="67.157" height="134.292"/> <polygon style="fill:#082947;" points="71.22,488.261 0,511.998 23.736,440.776 63.305,448.692 "/> </g> <polygon style="fill:#F2EBD9;" points="47.473,369.557 23.736,440.776 71.22,488.261 142.441,464.524 "/> </g>
</svg>